<?xml version="1.0" encoding="utf-8"?>
<!-- Generator: Adobe Illustrator 24.3.0, SVG Export Plug-In . SVG Version: 6.00 Build 0)  -->
<svg version="1.1" id="Layer_1" xmlns="http://www.w3.org/2000/svg" xmlns:xlink="http://www.w3.org/1999/xlink" x="0px" y="0px"
	 viewBox="0 0 100 30" style="enable-background:new 0 0 100 30;" xml:space="preserve">
<g>
	<path d="M3.3,26.7V3.6h5.2v18.5h9.9v4.6H3.3z"/>
	<path d="M41,23.5c-2.3,2.3-5.2,3.4-8.6,3.4s-6.3-1.1-8.6-3.4c-2.3-2.3-3.5-5.1-3.5-8.5c0-3.4,1.2-6.2,3.5-8.5C26,4.2,28.9,3,32.3,3
		s6.3,1.1,8.6,3.4c2.3,2.3,3.5,5.1,3.5,8.5C44.5,18.4,43.3,21.2,41,23.5z M39.2,15c0-2.1-0.7-3.8-2-5.3c-1.3-1.5-3-2.2-4.9-2.2
		c-1.9,0-3.6,0.7-4.9,2.2s-2,3.2-2,5.3s0.7,3.8,2,5.3c1.3,1.4,3,2.2,4.9,2.2c1.9,0,3.6-0.7,4.9-2.2C38.6,18.8,39.2,17.1,39.2,15z"/>
	<path d="M63.9,14.9h5.2v8.2c-2.3,2.6-5.5,3.8-9.5,3.8c-3.4,0-6.3-1.1-8.6-3.4c-2.3-2.3-3.5-5.1-3.5-8.5s1.2-6.3,3.5-8.6
		C53.4,4.2,56.2,3,59.6,3c3.3,0,6.2,1.1,8.7,3.3l-2.7,3.9c-1-0.9-2-1.5-2.9-1.9c-0.9-0.3-1.8-0.5-2.8-0.5c-2,0-3.6,0.7-5,2
		c-1.3,1.3-2,3.1-2,5.3s0.6,3.9,1.9,5.2c1.3,1.3,2.8,2,4.6,2c1.8,0,3.3-0.3,4.5-1V14.9z"/>
	<path d="M93.2,23.5c-2.3,2.3-5.2,3.4-8.6,3.4c-3.4,0-6.3-1.1-8.6-3.4c-2.3-2.3-3.5-5.1-3.5-8.5c0-3.4,1.2-6.2,3.5-8.5
		C78.2,4.2,81.1,3,84.5,3c3.4,0,6.3,1.1,8.6,3.4c2.3,2.3,3.5,5.1,3.5,8.5C96.7,18.4,95.5,21.2,93.2,23.5z M91.4,15
		c0-2.1-0.7-3.8-2-5.3c-1.3-1.5-3-2.2-4.9-2.2c-1.9,0-3.6,0.7-4.9,2.2s-2,3.2-2,5.3s0.7,3.8,2,5.3c1.3,1.4,3,2.2,4.9,2.2
		c1.9,0,3.6-0.7,4.9-2.2C90.7,18.8,91.4,17.1,91.4,15z"/>
</g>
<g>
</g>
<g>
</g>
<g>
</g>
<g>
</g>
<g>
</g>
</svg>
